<?xml version="1.0" standalone="no"?>
<!DOCTYPE svg PUBLIC "-//W3C//DTD SVG 20010904//EN"
 "http://www.w3.org/TR/2001/REC-SVG-20010904/DTD/svg10.dtd">
<svg version="1.0" xmlns="http://www.w3.org/2000/svg"
 width="2856.000000pt" height="1046.000000pt" viewBox="0 0 2856.000000 1046.000000"
 preserveAspectRatio="xMidYMid meet">

<g transform="translate(0.000000,1046.000000) scale(0.100000,-0.100000)"
fill="#000000" stroke="none">
<path d="M18553 9740 c-270 -48 -461 -276 -464 -555 l-1 -80 -91 -44 c-178
-87 -313 -259 -353 -451 -21 -98 -14 -252 15 -333 78 -223 234 -365 586 -537
89 -44 190 -100 223 -125 108 -81 169 -190 142 -254 -16 -39 -24 -39 -40 -1
-32 77 -116 102 -194 57 -61 -34 -81 -68 -80 -135 0 -128 100 -214 249 -216
61 0 78 4 125 30 64 36 124 109 144 174 l13 45 7 -45 c4 -25 18 -76 31 -114
13 -39 23 -70 22 -71 -1 0 -15 -6 -30 -13 -41 -18 -43 -36 -10 -102 16 -33 26
-60 22 -60 -14 0 -108 -91 -114 -111 -4 -13 8 -54 34 -112 46 -106 79 -229 62
-235 -16 -5 -41 -32 -41 -43 0 -5 10 -19 22 -31 l21 -21 -35 -31 c-20 -17 -44
-44 -53 -59 -17 -27 -17 -29 9 -77 57 -104 61 -157 59 -690 0 -267 -4 -562 -8
-657 -6 -156 -9 -172 -26 -176 -27 -7 -26 -57 1 -64 25 -7 26 -29 1 -42 -31
-17 -33 -40 -6 -65 l24 -22 -9 -390 c-5 -214 -9 -455 -10 -536 0 -136 -1 -147
-19 -153 -28 -8 -37 -43 -17 -63 14 -14 11 -20 -34 -63 -78 -75 -64 -115 45
-133 36 -6 41 -10 40 -33 0 -36 21 -41 181 -42 139 -1 159 5 152 46 -2 13 4
19 22 21 50 6 89 24 95 42 8 24 -14 67 -54 104 -31 29 -31 30 -11 48 26 24 25
32 -5 57 -24 18 -26 24 -23 98 l3 78 213 -4 212 -3 1 58 c1 62 4 59 14 -18 6
-44 9 -48 33 -48 47 0 73 11 68 29 -3 9 -6 36 -8 61 -2 40 0 45 20 48 21 3 22
0 22 -62 0 -52 3 -66 15 -66 8 0 15 -8 15 -18 0 -14 7 -17 46 -14 25 2 47 9
50 16 3 7 31 10 84 8 60 -3 81 0 85 10 2 7 6 122 7 256 l3 242 -72 0 -73 0 0
-125 0 -125 -30 0 c-36 0 -33 -10 -60 225 -31 267 -24 245 -77 245 l-45 0 6
-43 c3 -23 8 -70 12 -105 l7 -63 -34 3 -34 3 -12 100 c-6 55 -12 106 -12 113
-1 9 -34 12 -129 12 -71 0 -170 3 -220 6 l-92 7 0 82 c0 77 2 84 25 99 14 9
25 25 25 36 0 12 -10 25 -25 32 -14 6 -25 15 -25 20 0 5 11 14 25 20 31 14 33
51 3 72 l-21 15 11 553 c12 559 18 648 58 800 8 35 29 91 45 124 16 34 29 72
29 83 0 13 -21 42 -49 70 -46 47 -47 50 -30 65 24 20 24 31 -1 56 -11 11 -20
31 -20 44 0 33 35 142 71 223 37 82 34 100 -31 163 l-48 47 31 63 31 62 -22
18 c-12 10 -28 20 -34 22 -9 3 -4 23 15 67 15 34 30 80 33 102 7 39 24 55 24
22 0 -31 58 -119 102 -157 76 -66 188 -81 287 -40 110 46 166 188 108 275 -25
38 -97 79 -138 79 -36 0 -91 -39 -109 -77 -19 -40 -32 -37 -44 9 -19 75 70
194 199 268 29 17 118 59 197 93 213 93 326 164 434 271 147 147 200 281 192
486 -5 135 -32 224 -98 325 -65 100 -197 212 -299 254 l-30 13 0 93 c0 113
-12 167 -60 265 -95 198 -323 327 -543 306 -130 -12 -257 -73 -350 -168 -32
-32 -58 -55 -58 -50 0 18 -100 113 -161 152 -34 22 -90 49 -123 59 -76 23
-194 33 -263 21z m222 -191 c30 -11 77 -38 103 -59 54 -42 117 -132 109 -155
-4 -8 -28 -25 -54 -39 -113 -57 -192 -168 -201 -282 -2 -30 -6 -54 -7 -54 -1
0 -20 16 -41 36 -78 72 -194 115 -353 130 l-73 7 4 76 c9 158 111 293 259 345
65 23 186 21 254 -5z m920 -20 c147 -55 245 -198 245 -358 l0 -69 -92 -7
c-152 -12 -244 -42 -330 -108 l-46 -36 -12 67 c-21 124 -68 195 -173 263 -32
21 -63 39 -69 41 -15 5 11 53 60 108 100 114 269 154 417 99z m-464 -384 c74
-52 141 -174 156 -283 l6 -45 -32 19 c-18 10 -56 43 -84 73 l-51 54 -23 -29
c-68 -84 -103 -206 -104 -359 -1 -158 34 -293 102 -391 25 -37 29 -50 23 -81
-22 -122 -82 -203 -151 -203 -29 0 -43 8 -72 38 -37 38 -54 80 -67 159 -6 38
-2 48 34 103 137 204 150 534 30 723 l-30 47 -48 -47 c-27 -27 -67 -59 -90
-72 -39 -21 -42 -22 -37 -5 3 11 11 39 17 64 26 100 91 198 158 241 39 25 50
27 132 25 82 -2 93 -5 131 -31z m-694 -225 c43 -17 100 -47 127 -66 43 -32 47
-38 31 -46 -24 -14 -125 -1 -190 23 -59 22 -139 79 -156 111 -11 21 -10 21 50
15 33 -4 96 -20 138 -37z m1313 0 c0 -16 -106 -90 -157 -110 -60 -23 -147 -33
-193 -22 l-35 8 63 42 c55 35 138 70 207 85 39 9 115 7 115 -3z m-1683 -23
c18 -39 120 -143 174 -178 28 -17 78 -42 111 -54 l61 -22 -49 -7 c-158 -24
-271 -149 -282 -311 -2 -41 1 -96 7 -122 25 -100 110 -192 213 -229 90 -32
258 -15 360 37 l37 19 11 -53 c20 -99 69 -179 133 -222 l27 -17 -25 -29 c-43
-52 -45 -123 -3 -181 11 -16 19 -30 17 -31 -2 -1 -22 -11 -44 -22 -27 -14 -47
-33 -61 -62 l-21 -41 -12 53 c-17 73 -78 164 -148 219 -31 25 -136 87 -233
137 -215 112 -322 182 -417 272 -133 127 -185 232 -185 377 0 102 13 165 53
246 39 79 104 152 180 203 71 47 82 49 96 18z m1990 -92 c140 -124 206 -317
169 -493 -19 -91 -55 -159 -126 -236 -108 -117 -250 -208 -517 -330 -248 -113
-336 -194 -379 -346 -7 -25 -13 -37 -13 -27 -2 46 -44 86 -129 123 -2 1 9 19
23 40 23 33 26 47 23 92 -3 37 -11 60 -26 74 l-21 21 43 28 c71 44 127 134
142 226 l6 41 72 -34 c101 -48 212 -63 303 -40 88 21 155 67 202 137 69 104
77 228 22 345 -48 102 -162 184 -254 184 -41 0 -30 8 45 34 107 38 208 114
270 203 l29 43 30 -17 c17 -10 56 -40 86 -68z m-1232 -250 c-20 -197 -119
-366 -253 -432 -47 -23 -70 -28 -133 -28 -66 0 -81 4 -117 28 -107 71 -134
206 -61 307 l31 43 22 -26 c27 -32 57 -47 96 -47 119 0 164 148 65 215 l-30
20 110 1 c97 0 119 4 185 30 l75 30 8 -41 c4 -22 5 -67 2 -100z m405 106 c73
-35 181 -55 258 -49 l55 5 -34 -18 c-73 -37 -86 -130 -28 -188 49 -50 119 -49
168 1 l28 29 26 -31 c57 -67 59 -166 4 -247 -47 -70 -103 -96 -192 -90 -89 5
-153 36 -221 109 -87 92 -143 242 -144 384 0 56 8 124 15 124 2 0 31 -13 65
-29z"/>
<path d="M2972 6903 c-5 -10 -281 -652 -612 -1428 -331 -775 -633 -1471 -671
-1545 -87 -170 -158 -266 -225 -302 -27 -15 -91 -37 -141 -50 l-93 -22 0 -43
0 -43 535 0 535 0 0 43 0 44 -95 12 c-157 20 -232 55 -277 125 -29 46 -20 144
25 266 38 105 944 2220 956 2233 4 4 30 -52 58 -125 703 -1818 863 -2248 863
-2315 0 -44 -20 -82 -64 -121 -42 -36 -107 -58 -206 -68 l-70 -7 0 -43 0 -44
670 0 670 0 0 43 0 42 -73 12 c-211 34 -299 110 -428 368 -38 77 -337 779
-664 1560 l-594 1420 -45 3 c-35 2 -47 -1 -54 -15z"/>
<path d="M6300 6913 c-85 -9 -262 -47 -350 -75 -318 -102 -615 -323 -832 -618
-414 -566 -494 -1276 -208 -1865 213 -440 578 -749 1037 -878 203 -57 338 -77
584 -84 445 -13 802 62 1169 245 l95 47 6 635 c6 694 7 707 66 793 38 55 126
95 231 103 l82 7 0 43 0 44 -655 0 -655 0 0 -45 c0 -29 4 -45 13 -45 6 0 56
-5 110 -10 119 -12 183 -37 236 -95 76 -82 75 -72 79 -761 l3 -611 -84 -41
c-315 -154 -681 -184 -976 -80 -187 66 -333 158 -466 292 -239 242 -404 616
-455 1031 -14 116 -14 414 0 530 68 552 336 984 724 1166 195 91 451 128 686
98 136 -16 237 -46 355 -104 186 -91 327 -222 436 -405 46 -77 130 -262 150
-327 12 -42 13 -43 56 -43 40 0 43 2 43 28 0 15 -18 245 -40 512 -22 266 -40
492 -40 502 0 15 -9 18 -49 18 l-48 0 -6 -54 c-7 -72 -33 -123 -71 -143 -40
-21 -96 -10 -267 52 -177 65 -349 114 -459 130 -87 14 -402 18 -500 8z"/>
<path d="M15856 5518 c-628 -1471 -693 -1616 -773 -1738 -73 -111 -124 -153
-224 -186 -107 -34 -182 -34 -313 0 -200 52 -337 144 -498 336 -86 102 -845
1147 -850 1170 -2 7 29 21 77 34 233 65 394 154 521 288 105 111 174 240 205
383 20 93 15 285 -10 378 -75 283 -323 518 -629 596 -224 58 -469 71 -1324 71
l-658 0 0 -49 0 -49 128 -4 c146 -4 204 -23 265 -86 91 -93 89 -56 85 -1562
-3 -1202 -4 -1299 -21 -1346 -22 -66 -82 -128 -155 -162 -49 -22 -74 -27 -179
-30 l-123 -4 0 -44 0 -44 725 0 725 0 0 44 0 44 -128 4 c-121 3 -133 6 -195
36 -104 52 -136 107 -156 268 -7 54 -11 302 -11 634 l0 545 173 -1 c96 0 178
-3 183 -6 5 -4 263 -357 574 -787 l565 -780 973 -1 972 0 0 43 0 44 -92 11
c-134 17 -193 37 -243 83 -68 63 -75 138 -25 284 39 115 965 2264 972 2257 14
-14 689 -1774 828 -2157 107 -296 109 -313 43 -386 -40 -44 -119 -74 -228 -85
l-65 -7 0 -43 0 -44 665 0 665 0 0 44 0 44 -54 6 c-171 22 -286 99 -380 253
-66 110 -132 264 -731 1696 l-589 1407 -46 0 -45 0 -599 -1402z m-2917 1116
c99 -24 220 -87 292 -152 147 -133 220 -310 221 -532 0 -172 -42 -302 -135
-426 -164 -216 -454 -324 -869 -324 l-108 0 0 704 0 704 23 5 c22 6 202 33
267 41 64 8 243 -4 309 -20z"/>
<path d="M8274 6836 c-3 -8 -4 -29 -2 -48 l3 -33 135 -6 c110 -4 144 -9 185
-28 104 -46 136 -102 155 -266 13 -120 13 -2476 0 -2605 -12 -113 -37 -171
-92 -211 -70 -50 -142 -71 -268 -78 l-115 -6 -3 -43 -3 -42 1308 2 1308 3 142
410 c78 226 142 413 142 418 1 4 -21 7 -48 7 l-48 0 -52 -92 c-146 -255 -294
-424 -431 -492 -133 -65 -181 -70 -725 -70 l-480 -1 -49 25 c-36 18 -56 36
-70 65 -20 39 -21 57 -24 718 l-3 677 443 0 c483 0 534 -5 629 -56 110 -60
148 -130 185 -341 l17 -103 44 0 43 0 0 590 0 590 -44 0 -43 0 -7 -67 c-15
-151 -67 -277 -140 -339 -22 -19 -70 -44 -106 -56 -63 -21 -83 -22 -542 -26
l-478 -3 0 666 0 666 593 -4 c626 -4 635 -4 726 -52 48 -24 128 -102 156 -150
27 -47 68 -170 90 -272 l17 -73 50 0 50 0 -6 78 c-3 42 -11 176 -16 297 -6
121 -13 253 -16 293 l-6 72 -1299 0 c-1107 0 -1300 -2 -1305 -14z"/>
<path d="M20130 6801 l0 -49 128 -4 c105 -3 136 -8 178 -27 91 -40 140 -111
165 -236 8 -41 14 -369 19 -1045 8 -1050 10 -1103 60 -1288 45 -164 141 -322
272 -448 102 -98 153 -134 271 -189 180 -85 340 -115 641 -122 350 -9 563 28
771 132 275 138 468 368 540 645 63 245 75 468 75 1484 0 777 3 842 42 919 27
54 94 118 153 148 47 23 60 24 220 24 162 -1 174 -2 245 -29 129 -48 179 -82
293 -199 l107 -110 0 -1221 c0 -1222 -3 -1349 -36 -1447 -38 -118 -156 -179
-346 -179 l-98 0 0 -45 0 -45 590 0 590 0 0 44 0 44 -122 4 c-182 7 -275 50
-316 146 -41 94 -43 168 -40 1317 l3 1099 1110 -1356 1110 -1357 47 0 48 -1 2
1548 c3 1740 -3 1608 79 1697 62 67 121 88 269 94 l125 6 0 45 0 45 -587 3
-588 2 0 -49 0 -49 128 -4 c105 -3 135 -7 177 -26 88 -41 132 -97 156 -203 9
-40 13 -306 16 -1034 2 -539 3 -1023 1 -1075 l-3 -95 -1034 1268 -1033 1267
-1012 -2 -1011 -3 0 -45 0 -45 130 -5 c115 -5 137 -9 187 -34 78 -37 122 -91
144 -175 16 -60 18 -148 22 -951 3 -896 -1 -1048 -34 -1250 -9 -52 -28 -132
-43 -176 -88 -260 -351 -461 -701 -537 -143 -31 -401 -30 -525 2 -297 77 -479
254 -550 537 -58 226 -59 248 -63 1279 -3 986 -1 1052 38 1141 23 53 75 105
136 134 41 20 70 25 179 29 l130 6 3 48 3 47 -730 0 -731 0 0 -49z"/>
<path d="M9423 2496 c-113 -157 -328 -518 -425 -710 -61 -122 -88 -197 -88
-245 0 -35 22 -81 39 -81 5 0 38 60 74 133 110 223 187 322 322 413 47 32 85
44 85 26 0 -4 -31 -61 -70 -126 -115 -197 -148 -304 -117 -379 45 -108 218
-101 321 13 59 65 97 158 77 189 -13 20 -23 10 -66 -64 -50 -85 -133 -165
-172 -165 -40 0 -53 17 -53 67 0 54 24 115 93 234 84 145 97 175 97 218 0 28
-8 48 -26 70 -39 47 -85 43 -169 -15 -37 -25 -63 -39 -59 -32 4 7 44 69 88
138 105 163 136 228 143 293 6 55 -7 97 -30 97 -7 0 -36 -33 -64 -74z"/>
<path d="M8133 2448 c-126 -121 -338 -402 -447 -590 -27 -47 -29 -48 -77 -48
-58 0 -64 -16 -23 -57 l26 -26 -28 -61 c-39 -88 -46 -206 -11 -206 6 0 33 42
59 93 86 167 64 151 224 165 212 19 189 29 189 -86 0 -80 4 -103 21 -132 11
-19 29 -36 40 -38 19 -3 21 4 28 85 3 48 9 112 13 141 l6 53 43 -7 c41 -6 44
-5 44 16 0 13 -15 37 -35 56 l-35 33 21 103 c11 57 41 173 66 258 32 112 43
167 40 198 -5 48 -49 122 -73 122 -9 0 -50 -33 -91 -72z m22 -186 c-26 -81
-70 -271 -81 -348 -3 -28 -9 -57 -13 -63 -7 -11 -260 -45 -269 -36 -10 10 205
310 326 456 31 37 58 66 59 65 1 -1 -9 -34 -22 -74z"/>
<path d="M17178 2468 c-192 -289 -409 -696 -502 -938 -74 -195 -102 -358 -75
-453 5 -20 27 -55 48 -77 30 -32 45 -40 74 -40 30 0 42 8 80 50 71 79 157 277
182 420 5 29 14 40 51 59 97 52 181 166 172 236 -5 46 -23 40 -56 -18 -31 -55
-127 -167 -143 -167 -5 0 -9 28 -9 63 0 85 -15 132 -51 160 l-30 23 52 95 c29
51 95 166 147 254 52 88 101 175 109 192 35 86 36 184 1 191 -8 2 -29 -19 -50
-50z m-262 -773 c8 -42 1 -171 -9 -181 -4 -4 -15 0 -25 9 -20 20 -21 114 -2
171 15 46 27 46 36 1z m-36 -235 c11 0 20 -2 20 -4 0 -2 -14 -46 -30 -98 -40
-120 -101 -246 -141 -289 -30 -32 -31 -33 -46 -14 -22 31 -9 120 42 270 24 72
49 144 56 162 l13 32 33 -30 c19 -16 43 -29 53 -29z"/>
<path d="M16022 2433 c-122 -186 -316 -554 -387 -731 -25 -65 -37 -110 -37
-146 -1 -55 14 -96 35 -96 7 0 46 71 87 157 41 86 144 281 227 432 161 290
184 349 167 419 -15 59 -35 52 -92 -35z"/>
<path d="M12635 2491 c-12 -21 -35 -228 -45 -421 l-11 -205 -50 -118 c-56
-130 -71 -213 -49 -267 19 -46 42 -38 64 23 10 28 45 108 78 177 l61 125 267
265 c147 146 274 279 283 295 32 65 33 135 1 135 -9 0 -133 -116 -276 -259
l-261 -259 7 62 c15 154 19 352 7 389 -16 47 -61 82 -76 58z"/>
<path d="M17624 2423 c-140 -164 -263 -381 -331 -582 -47 -136 -56 -267 -24
-318 31 -50 67 -68 130 -67 73 1 148 39 218 110 54 56 77 107 71 158 -5 46
-21 40 -58 -21 -87 -147 -225 -242 -271 -187 -21 25 -14 118 15 210 23 72 31
84 67 108 22 15 76 63 119 106 200 203 289 442 200 538 -37 40 -63 29 -136
-55z m66 -211 c-22 -47 -60 -113 -85 -146 -43 -61 -165 -188 -165 -172 0 28
214 377 261 426 l24 25 3 -24 c2 -12 -15 -61 -38 -109z"/>
<path d="M9967 2273 c-25 -29 -30 -67 -13 -107 20 -47 56 -65 90 -43 50 33 37
129 -20 156 -33 15 -38 14 -57 -6z"/>
<path d="M14751 2174 c-70 -59 -111 -172 -80 -222 9 -15 -5 -41 -83 -156 -89
-132 -93 -136 -96 -104 -6 55 -18 53 -63 -14 -83 -123 -141 -178 -189 -178
-80 0 -66 97 42 281 115 196 134 252 105 322 -9 20 -20 37 -26 37 -16 0 -53
-56 -136 -205 -155 -281 -269 -425 -334 -425 -35 0 -47 27 -37 84 8 40 77 185
133 276 64 106 80 163 60 220 -19 55 -44 46 -100 -35 -76 -110 -186 -340 -199
-417 -21 -121 18 -184 113 -182 57 1 119 35 176 97 l41 44 6 -39 c13 -78 51
-108 139 -108 69 1 127 28 188 91 46 47 49 49 42 23 -14 -49 -8 -102 14 -131
11 -16 24 -27 28 -26 5 1 18 30 30 65 27 80 68 160 162 320 l74 127 57 12 c31
6 74 20 95 30 l37 20 -51 -63 c-116 -144 -173 -282 -150 -364 34 -126 183
-148 291 -43 23 22 50 59 61 82 19 44 25 112 10 121 -5 3 -29 -30 -54 -73 -78
-135 -169 -188 -205 -121 -33 63 18 194 129 331 76 93 82 104 75 142 -7 36
-44 97 -58 97 -6 0 -32 -13 -58 -30 -43 -27 -129 -64 -136 -57 -2 1 4 26 12
54 8 29 14 71 12 95 -4 54 -30 62 -77 22z"/>
<path d="M10856 2132 c-2 -4 -18 -59 -35 -122 -55 -208 -85 -413 -70 -478 8
-38 57 -92 84 -92 8 0 46 47 84 104 69 102 164 226 295 381 37 44 76 97 87
117 20 39 26 98 9 98 -23 0 -260 -300 -393 -499 -43 -62 -77 -112 -77 -109 0
19 28 151 62 293 44 185 45 233 7 286 -20 28 -43 37 -53 21z"/>
<path d="M18273 2098 c-17 -24 -49 -79 -73 -123 -191 -355 -333 -519 -390
-450 -27 32 14 142 121 331 75 131 93 195 67 244 -25 47 -44 37 -102 -52 -160
-245 -228 -433 -191 -525 19 -48 53 -68 109 -67 56 1 100 26 169 92 l57 56 0
-43 c0 -36 6 -49 34 -77 32 -32 39 -34 98 -34 51 0 72 6 113 29 92 52 155 141
155 215 0 55 -16 51 -56 -11 -79 -125 -141 -183 -195 -183 -39 0 -53 23 -46
75 7 50 32 103 120 254 70 119 86 161 86 216 1 42 -16 86 -36 92 -6 2 -24 -15
-40 -39z"/>
<path d="M8623 2104 c-123 -61 -251 -254 -261 -393 -6 -93 11 -154 58 -201 46
-46 110 -65 189 -57 147 16 304 137 318 248 8 57 -13 50 -66 -22 -77 -106
-186 -178 -269 -179 -56 0 -80 14 -98 55 -27 66 -11 163 44 274 38 77 113 172
161 205 70 49 82 31 41 -65 -36 -85 -39 -145 -9 -183 35 -45 50 -34 93 64 58
135 50 188 -38 251 -49 37 -95 37 -163 3z"/>
<path d="M10383 2109 c-129 -63 -254 -249 -269 -398 -13 -118 44 -219 141
-251 57 -19 161 -8 230 24 113 51 205 152 205 223 0 47 -19 41 -59 -18 -102
-150 -279 -233 -356 -166 -35 30 -49 93 -35 165 5 30 12 58 15 60 3 3 23 -4
44 -16 45 -26 115 -29 165 -8 120 50 206 242 144 321 -64 82 -144 104 -225 64z
m155 -78 c8 -51 -94 -203 -159 -236 -36 -19 -88 -19 -95 0 -15 39 127 219 197
250 42 18 53 15 57 -14z"/>
<path d="M11596 2110 c-95 -48 -199 -172 -246 -297 -31 -81 -32 -192 -2 -249
63 -121 207 -149 367 -70 112 56 210 175 188 232 -9 23 -19 17 -57 -34 -84
-115 -198 -192 -284 -192 -86 0 -116 42 -110 156 2 40 8 78 14 84 7 7 22 4 49
-10 87 -44 186 -15 262 78 47 57 79 147 68 189 -9 36 -39 73 -87 106 -49 33
-105 35 -162 7z m152 -62 c23 -29 -41 -150 -117 -221 -50 -47 -83 -57 -125
-41 -24 9 -20 25 22 90 46 71 118 145 164 167 40 20 43 20 56 5z"/>
<path d="M16187 2043 c-146 -234 -227 -406 -227 -486 0 -48 22 -107 40 -107 5
0 41 62 78 138 85 171 128 239 201 315 56 60 162 137 188 137 23 0 15 -22 -48
-130 -119 -204 -150 -310 -115 -395 19 -44 61 -65 133 -65 94 0 191 67 243
170 21 41 27 105 11 115 -6 3 -33 -30 -61 -74 -63 -99 -128 -161 -169 -161
-38 0 -56 24 -54 74 2 54 20 94 112 256 68 121 76 140 76 188 0 48 -3 57 -34
84 -26 23 -39 28 -60 23 -41 -10 -104 -50 -163 -104 l-55 -50 5 52 c4 58 -10
107 -32 107 -8 0 -39 -39 -69 -87z"/>
<path d="M18753 2109 c-130 -64 -254 -250 -270 -405 -12 -111 48 -213 142
-244 57 -19 161 -8 230 24 113 51 205 152 205 223 0 47 -19 41 -59 -18 -102
-150 -279 -233 -356 -166 -35 30 -49 93 -35 165 5 30 12 57 14 60 3 2 25 -5
49 -17 83 -40 165 -23 236 48 86 86 117 205 69 266 -64 82 -144 104 -225 64z
m155 -78 c8 -51 -94 -203 -159 -236 -36 -19 -88 -19 -95 0 -15 39 127 219 197
250 42 18 53 15 57 -14z"/>
<path d="M19291 2071 c-101 -148 -224 -394 -243 -483 -10 -48 -9 -59 8 -93 10
-21 24 -40 29 -42 6 -2 40 56 75 129 111 226 197 339 320 421 51 35 90 47 90
29 0 -4 -23 -48 -52 -97 -102 -179 -131 -249 -136 -334 -4 -75 -3 -79 25 -111
27 -30 37 -34 92 -38 79 -6 136 15 195 73 55 53 98 135 94 178 -4 44 -24 44
-46 0 -33 -64 -111 -162 -145 -183 -72 -44 -116 -14 -103 72 8 49 33 104 125
266 51 90 64 122 64 156 0 50 -23 90 -63 106 -25 10 -36 9 -74 -9 -24 -12 -66
-41 -93 -63 -94 -81 -87 -78 -79 -36 8 46 -9 118 -29 118 -8 0 -32 -26 -54
-59z"/>
<path d="M20125 2118 c-143 -51 -295 -276 -295 -437 0 -93 37 -164 105 -203
33 -19 55 -23 120 -23 69 0 89 4 148 32 84 40 167 120 192 186 14 38 16 50 6
60 -10 9 -18 5 -39 -23 -52 -70 -153 -161 -204 -185 -191 -89 -263 60 -147
303 46 96 167 232 207 232 29 0 28 -16 -4 -87 -37 -80 -39 -167 -5 -194 13
-10 29 -19 35 -19 12 0 78 138 91 193 10 39 -1 71 -37 112 -54 62 -104 77
-173 53z"/>
<path d="M20713 2109 c-129 -63 -254 -249 -269 -398 -13 -118 44 -219 141
-251 57 -19 161 -8 230 24 113 51 205 152 205 223 0 47 -19 41 -59 -18 -102
-150 -279 -233 -356 -166 -35 30 -49 93 -35 165 5 30 12 58 15 60 3 3 23 -4
44 -16 45 -26 115 -29 165 -8 120 50 206 242 144 321 -64 82 -144 104 -225 64z
m155 -78 c8 -51 -94 -203 -159 -236 -36 -19 -88 -19 -95 0 -15 39 127 219 197
250 42 18 53 15 57 -14z"/>
<path d="M13382 2100 c-55 -25 -139 -110 -180 -182 -105 -183 -99 -352 15
-432 117 -82 267 -8 365 181 20 37 41 84 47 104 7 22 21 41 36 47 30 14 33 32
5 32 -18 0 -20 7 -20 58 0 64 -13 90 -82 165 -42 44 -48 47 -94 47 -27 0 -68
-9 -92 -20z m172 -96 c9 -36 -4 -116 -18 -111 -20 6 -38 81 -27 110 13 34 37
35 45 1z m-60 -146 l35 -33 -26 -60 c-37 -86 -83 -155 -138 -203 -41 -36 -55
-42 -84 -40 -28 2 -39 9 -50 33 -33 70 40 280 134 384 l49 53 22 -51 c13 -28
39 -66 58 -83z"/>
<path d="M9850 2028 c-74 -119 -158 -295 -176 -371 -20 -80 -13 -127 25 -169
76 -85 266 -15 335 124 28 57 33 100 13 116 -10 8 -19 -2 -41 -44 -73 -140
-213 -235 -232 -158 -12 48 5 100 90 266 91 177 105 224 86 282 -19 58 -42 48
-100 -46z"/>
</g>
</svg>
