<?xml version="1.0" standalone="no"?>
<!DOCTYPE svg PUBLIC "-//W3C//DTD SVG 20010904//EN"
 "http://www.w3.org/TR/2001/REC-SVG-20010904/DTD/svg10.dtd">
<svg version="1.0" xmlns="http://www.w3.org/2000/svg"
 width="2610.000000pt" height="1451.000000pt" viewBox="0 0 2610.000000 1451.000000"
 preserveAspectRatio="xMidYMid meet">

<g transform="translate(0.000000,1451.000000) scale(0.100000,-0.100000)"
fill="#000000" stroke="none">
<path d="M0 7255 l0 -7255 13050 0 13050 0 0 7255 0 7255 -13050 0 -13050 0 0
-7255z m16141 3468 c36 -16 84 -50 110 -76 l46 -47 29 31 c233 243 643 80 645
-257 l0 -73 47 -23 c77 -39 157 -121 199 -205 32 -65 37 -86 41 -163 6 -114
-20 -203 -80 -284 -59 -79 -141 -139 -288 -208 -196 -92 -210 -100 -261 -149
-50 -49 -70 -101 -51 -135 9 -16 11 -15 22 7 27 50 75 63 130 34 37 -19 50
-43 50 -92 0 -103 -127 -174 -233 -129 -38 15 -95 77 -109 118 -10 29 -11 28
-33 -38 l-23 -68 21 -16 21 -17 -21 -42 -21 -41 34 -34 c39 -39 41 -57 14
-118 -11 -25 -26 -69 -34 -99 -12 -48 -12 -56 2 -72 12 -14 14 -22 5 -35 -8
-14 -4 -24 24 -55 19 -21 33 -41 31 -45 -65 -121 -77 -192 -88 -487 -14 -398
-13 -562 5 -569 20 -7 19 -33 -2 -45 -16 -9 -16 -11 2 -31 20 -22 20 -22 -3
-40 -18 -15 -22 -28 -22 -74 l0 -56 149 0 149 0 7 -62 c9 -86 13 -98 36 -98
18 0 19 5 13 70 l-7 70 30 0 c34 0 30 17 55 -203 11 -100 13 -108 32 -105 19
3 21 11 24 86 l3 83 45 -3 c24 -2 44 -6 44 -10 0 -5 0 -83 0 -174 l0 -167 -55
6 c-30 3 -57 1 -60 -4 -9 -14 -55 -11 -71 5 -8 8 -14 31 -14 50 0 27 -4 36
-16 36 -14 0 -16 -7 -11 -39 5 -41 -3 -51 -44 -51 -14 0 -19 8 -20 33 -2 30
-2 30 -6 5 l-4 -28 -145 0 -144 0 0 -51 c0 -38 5 -55 18 -65 15 -11 15 -16 3
-35 -11 -19 -11 -23 3 -31 20 -11 45 -59 39 -75 -3 -7 -23 -18 -45 -23 -22 -6
-37 -14 -34 -17 3 -3 1 -12 -5 -20 -8 -9 -38 -13 -101 -13 -92 0 -131 11 -122
33 3 9 -10 16 -38 23 -55 12 -62 39 -19 80 23 21 29 34 24 54 -3 18 0 29 10
33 12 4 15 65 21 367 7 342 7 363 -10 382 -18 19 -18 20 0 34 19 13 19 14 0
35 -18 20 -18 21 1 35 19 14 20 33 28 372 9 438 1 576 -38 655 -20 41 -19 46
16 83 28 28 29 34 17 53 -11 19 -11 24 6 37 19 14 19 16 -13 106 -49 140 -49
140 -3 179 l39 33 -18 40 -19 41 24 20 24 20 -22 68 -22 67 -12 -34 c-17 -45
-81 -102 -131 -116 -103 -28 -211 45 -211 143 0 29 7 46 29 67 53 54 125 48
154 -12 14 -29 15 -30 26 -10 36 68 -55 170 -229 255 -279 136 -392 252 -423
434 -29 180 74 378 242 463 l58 29 5 74 c17 267 290 432 529 320z m-10628
-1875 c90 -227 821 -1957 853 -2018 78 -153 151 -212 275 -227 48 -6 49 -7 49
-39 l0 -34 -451 0 -450 0 3 33 c3 31 5 32 54 38 77 10 121 27 149 60 44 53 43
54 -163 599 -249 660 -426 1110 -433 1103 -12 -14 -632 -1466 -651 -1526 -10
-33 -18 -76 -18 -97 0 -75 72 -125 196 -137 l64 -6 0 -33 0 -34 -361 0 -360 0
3 31 c3 30 7 32 81 54 51 15 88 32 108 51 72 69 134 199 535 1139 224 522 417
974 430 1003 20 46 26 52 52 52 17 0 32 -6 35 -12z m2607 -22 c52 -14 146 -43
208 -66 170 -60 200 -54 223 48 11 47 15 52 40 52 34 0 31 17 59 -345 11 -143
23 -286 26 -317 l6 -58 -29 0 c-27 0 -31 6 -72 104 -85 209 -201 342 -366 421
-109 53 -211 75 -344 75 -301 0 -524 -121 -677 -367 -233 -372 -232 -955 1
-1353 95 -161 206 -267 360 -341 232 -112 514 -106 753 15 l53 27 -3 422 -3
422 -25 44 c-34 61 -93 90 -194 98 l-77 6 3 31 3 31 440 0 440 0 0 -30 c0 -29
-1 -30 -60 -36 -66 -6 -109 -25 -141 -61 -46 -51 -48 -69 -52 -531 l-3 -437
-57 -29 c-502 -251 -1171 -222 -1553 68 -215 164 -373 419 -425 688 -21 106
-24 337 -5 433 91 478 438 874 857 980 130 33 191 39 359 35 132 -3 176 -8
255 -29z m6854 -924 c219 -526 424 -1005 454 -1064 80 -157 151 -218 275 -236
49 -7 52 -9 52 -37 l0 -30 -447 -3 -448 -2 0 34 0 33 58 6 c110 9 185 75 167
145 -18 73 -598 1598 -613 1614 -10 10 -647 -1481 -667 -1560 -33 -127 16
-178 192 -200 56 -7 58 -8 58 -37 l0 -30 -650 -3 -650 -2 -385 532 -385 532
-118 1 -117 0 0 -397 c0 -249 4 -416 11 -448 22 -103 92 -149 227 -150 l82 0
0 -35 0 -35 -485 0 -485 0 0 34 0 34 95 4 c85 3 99 7 137 34 24 16 52 47 63
69 19 39 20 63 23 935 2 626 -1 910 -9 948 -21 101 -88 148 -230 159 l-79 6 0
29 0 30 563 -5 c354 -3 588 -9 632 -16 203 -33 307 -81 415 -190 116 -117 160
-219 160 -373 0 -165 -44 -274 -159 -389 -84 -84 -188 -142 -311 -175 -36 -10
-69 -21 -73 -25 -5 -3 112 -175 260 -380 373 -520 447 -592 658 -644 84 -21
151 -16 225 16 61 26 111 87 177 215 22 43 226 514 453 1047 l413 967 31 0 31
-1 399 -957z m-4210 886 c3 -13 8 -95 11 -183 3 -88 8 -190 12 -227 l6 -68
-36 0 c-32 0 -35 3 -42 37 -4 21 -18 73 -32 116 -29 92 -77 153 -151 189 -46
23 -52 23 -459 26 l-413 3 0 -445 0 -446 305 0 c319 0 381 6 437 43 45 30 95
134 105 217 8 64 9 65 38 65 l30 0 3 -398 2 -398 -32 3 c-32 3 -32 3 -50 92
-9 49 -22 102 -28 117 -16 38 -57 74 -115 101 -48 22 -60 23 -373 26 l-323 3
3 -463 c3 -508 1 -493 64 -523 26 -12 87 -15 341 -15 330 0 408 7 491 45 94
43 205 168 301 338 30 52 36 57 66 57 l34 0 -89 -257 c-48 -142 -93 -270 -99
-285 l-11 -28 -875 0 -875 0 0 35 0 35 78 0 c67 0 88 4 138 30 109 54 99 -46
99 1040 0 900 -1 947 -19 982 -26 54 -96 86 -208 94 l-88 7 0 28 0 29 875 0
875 0 4 -22z m7204 -9 c3 -26 2 -26 -84 -33 -103 -8 -161 -31 -197 -78 -50
-65 -52 -94 -52 -768 0 -536 3 -642 17 -745 28 -193 67 -292 148 -372 88 -89
194 -136 339 -153 226 -26 463 46 612 187 166 157 183 268 177 1173 -3 420 -8
595 -16 621 -29 87 -92 125 -225 135 l-87 7 0 28 0 29 683 0 682 0 690 -847
690 -847 3 714 c2 741 0 795 -39 844 -32 41 -96 65 -192 72 l-87 7 0 28 0 29
400 0 400 0 0 -29 0 -28 -87 -7 c-98 -7 -162 -32 -192 -74 -46 -65 -45 -50
-49 -1139 l-3 -1033 -32 1 c-30 0 -75 53 -777 912 l-745 912 -3 -705 c-3 -893
0 -928 89 -987 35 -23 55 -27 137 -32 l97 -6 0 -30 0 -30 -398 -3 -398 -2 3
32 3 33 90 5 c91 6 121 16 163 54 60 54 57 -1 60 970 l3 888 -48 55 c-63 74
-123 117 -211 149 -62 23 -90 27 -175 27 -112 1 -156 -14 -209 -70 -64 -68
-62 -40 -69 -788 -6 -734 -9 -775 -64 -936 -57 -171 -213 -328 -398 -402 -123
-49 -213 -62 -432 -61 -243 0 -338 18 -483 90 -119 58 -227 162 -285 271 -96
183 -98 207 -106 1038 -6 620 -9 695 -24 735 -10 24 -25 53 -35 63 -30 34 -96
56 -186 63 l-86 7 0 29 0 28 493 -2 492 -3 3 -26z m-8122 -2875 c12 -49 -25
-130 -144 -312 -14 -22 -12 -21 33 7 58 37 88 39 109 9 27 -38 19 -77 -39
-178 -83 -148 -94 -220 -34 -220 25 0 93 68 119 120 24 46 40 52 40 13 0 -38
-44 -108 -85 -133 -117 -72 -212 -23 -185 95 10 46 55 140 106 223 22 35 23
42 9 42 -21 0 -91 -49 -131 -92 -43 -45 -100 -136 -141 -225 -34 -74 -46 -86
-57 -57 -18 48 -5 97 62 227 74 143 239 417 285 473 34 41 45 42 53 8z m-825
-73 c9 -31 5 -53 -24 -156 -19 -66 -40 -146 -47 -178 -11 -57 -11 -59 14 -82
36 -33 35 -56 -3 -49 -33 7 -35 2 -47 -118 -3 -38 -10 -68 -14 -68 -4 0 -15 9
-26 21 -15 17 -19 36 -19 96 l0 74 -30 -5 c-16 -3 -67 -8 -111 -12 l-81 -6
-43 -82 c-52 -98 -49 -94 -60 -76 -16 24 -11 68 11 121 20 46 20 51 5 68 -25
27 -19 41 17 41 29 0 36 7 84 83 78 125 170 244 250 326 71 74 73 74 93 56 11
-10 25 -34 31 -54z m6027 17 c3 -50 -11 -80 -142 -302 -74 -126 -87 -156 -66
-156 18 0 40 -58 40 -105 0 -25 4 -45 8 -45 12 0 55 49 87 98 15 23 32 42 36
42 14 0 10 -48 -5 -79 -17 -32 -85 -96 -112 -105 -14 -4 -24 -26 -36 -76 -41
-173 -131 -301 -188 -270 -105 56 -86 228 59 536 89 188 286 517 305 511 6 -2
12 -24 14 -49z m-767 21 c19 -36 -6 -102 -101 -274 -48 -88 -117 -217 -151
-287 -35 -71 -67 -128 -72 -128 -4 0 -12 12 -18 28 -14 37 7 111 69 244 74
158 237 438 254 438 4 0 12 -9 19 -21z m1132 -71 c-2 -105 -104 -263 -231
-359 -36 -27 -60 -83 -69 -159 -6 -54 11 -76 52 -66 35 9 101 70 132 123 26
44 38 52 45 31 16 -44 -58 -145 -128 -174 -44 -18 -104 -18 -131 1 -68 47 -41
205 69 418 47 90 144 224 185 257 l27 21 24 -25 c19 -19 25 -35 25 -68z
m-3427 56 c15 -22 16 -44 10 -170 l-7 -144 172 170 c94 93 177 170 185 170 21
0 18 -57 -6 -94 -10 -17 -96 -106 -190 -199 -178 -175 -207 -217 -265 -369
-20 -53 -29 -58 -46 -27 -17 33 -6 95 34 188 32 72 37 95 37 160 1 77 15 248
26 308 7 39 27 42 50 7z m-1782 -136 c20 -29 20 -72 1 -88 -23 -19 -62 2 -70
39 -13 60 37 96 69 49z m3211 -83 c0 -22 -4 -50 -8 -62 -11 -31 7 -30 67 2 59
31 70 31 84 0 20 -44 14 -68 -33 -125 -58 -70 -95 -144 -95 -190 0 -37 14 -60
36 -60 23 0 76 53 106 108 35 61 55 54 37 -14 -24 -84 -121 -142 -190 -114
-86 36 -72 158 32 291 22 27 38 49 36 49 -2 0 -17 -4 -33 -9 -16 -5 -41 -12
-55 -15 -20 -4 -38 -24 -68 -75 -46 -77 -115 -218 -124 -250 -13 -51 -52 0
-44 58 l5 36 -39 -37 c-43 -41 -104 -64 -143 -54 -36 9 -66 41 -66 71 0 14 -2
25 -4 25 -2 0 -20 -16 -41 -36 -62 -58 -128 -71 -165 -34 -50 50 -3 202 121
392 31 49 56 50 65 2 6 -31 -3 -53 -65 -175 -71 -140 -82 -177 -58 -197 36
-30 127 76 234 270 34 62 69 122 78 133 15 20 15 20 30 1 8 -11 15 -34 15 -51
0 -32 -7 -46 -94 -207 -35 -64 -46 -96 -44 -120 7 -72 91 -29 155 80 29 48 40
53 45 16 3 -23 11 -15 65 66 52 77 61 95 52 112 -16 29 -2 71 38 117 45 53 68
51 68 -4z m-5215 -151 l0 -166 -147 6 c-104 5 -3735 126 -3770 126 -1 0 -3 23
-3 50 l0 50 58 1 c31 0 833 22 1782 48 949 27 1805 49 1903 50 l177 1 0 -166z
m11740 116 c1020 -27 1861 -50 1868 -50 8 0 12 -17 12 -50 0 -27 -3 -50 -7
-50 -5 0 -885 -29 -1958 -65 -1072 -36 -1953 -65 -1957 -65 -5 0 -8 74 -8 165
l0 165 98 0 c53 0 932 -23 1952 -50z m-9421 25 c32 -16 81 -70 81 -88 0 -34
-25 -92 -52 -123 -55 -62 -118 -80 -177 -49 -27 14 -29 13 -35 -8 -3 -12 -6
-41 -6 -64 0 -118 135 -109 243 17 20 24 37 47 37 52 0 4 7 8 15 8 18 0 19 -9
4 -47 -33 -90 -177 -165 -273 -143 -131 29 -146 193 -31 350 44 59 84 87 163
109 2 1 16 -6 31 -14z m265 -7 c22 -31 20 -84 -8 -196 -13 -53 -27 -117 -31
-142 l-7 -45 65 95 c80 116 235 310 248 310 5 0 9 -11 9 -23 0 -27 -30 -71
-141 -205 -43 -52 -100 -128 -126 -168 -26 -41 -54 -74 -61 -74 -26 0 -62 48
-62 82 0 69 56 347 76 380 9 14 22 9 38 -14z m546 12 c5 0 25 -14 45 -31 46
-41 49 -94 6 -160 -50 -80 -125 -108 -191 -74 -36 19 -43 10 -44 -61 -1 -73
22 -98 85 -92 57 6 121 48 168 112 19 25 38 46 43 46 15 0 8 -42 -12 -75 -42
-68 -131 -116 -216 -117 -140 -1 -193 125 -118 280 48 99 161 192 212 176 8
-2 18 -4 22 -4z m3070 -58 l0 -46 38 35 c76 73 115 86 152 49 34 -34 25 -75
-40 -190 -78 -136 -91 -201 -42 -208 32 -5 72 28 116 97 22 33 43 58 48 55 15
-9 8 -47 -16 -89 -56 -95 -179 -133 -232 -72 -42 49 -26 125 55 267 28 48 51
93 51 99 0 23 -82 -33 -140 -95 -39 -42 -75 -98 -115 -175 -32 -63 -59 -116
-61 -118 -2 -2 -10 2 -19 9 -41 34 -7 142 105 331 59 100 74 118 86 108 8 -7
14 -30 14 -57z m1381 41 c16 -41 -1 -94 -67 -209 -46 -79 -58 -108 -58 -144
-1 -39 2 -45 21 -48 27 -4 95 56 130 115 29 50 43 55 43 14 0 -43 -57 -121
-110 -149 -77 -41 -160 -13 -160 54 0 27 -15 32 -24 9 -3 -8 -27 -29 -53 -45
-130 -83 -196 14 -123 184 36 85 130 236 147 236 20 0 36 -40 29 -73 -3 -16
-25 -64 -49 -106 -57 -103 -86 -171 -87 -203 -1 -60 61 -33 126 55 44 59 68
97 163 265 23 39 46 72 52 72 5 0 14 -12 20 -27z m412 -23 c41 -43 45 -63 21
-118 -40 -98 -148 -151 -212 -106 -28 20 -32 16 -39 -35 -21 -156 114 -164
245 -14 52 59 69 64 58 18 -16 -64 -131 -149 -211 -156 -71 -5 -95 1 -132 35
-34 31 -37 39 -41 99 -5 78 7 118 59 196 55 82 140 137 194 124 11 -2 37 -22
58 -43z m285 -22 l-3 -37 25 23 c42 40 102 76 125 76 12 0 30 -9 40 -20 32
-35 23 -78 -34 -179 -63 -109 -85 -174 -70 -202 23 -43 76 -12 140 83 46 67
71 68 49 3 -27 -83 -126 -154 -197 -140 -103 19 -98 129 16 320 51 86 37 97
-44 36 -65 -49 -126 -133 -189 -258 -25 -51 -51 -93 -56 -93 -17 0 -32 52 -25
86 8 43 95 221 151 307 44 67 47 70 61 52 8 -12 13 -35 11 -57z m1011 43 c14
-9 34 -29 45 -44 17 -24 18 -30 7 -69 -34 -115 -137 -177 -221 -133 -34 18
-40 9 -40 -66 0 -140 160 -111 273 51 25 36 43 14 24 -31 -31 -75 -142 -142
-235 -142 -58 0 -89 17 -126 67 -66 87 26 305 156 370 55 27 75 27 117 -3z
m-8129 -1 c15 -11 33 -33 40 -50 11 -28 10 -38 -15 -101 -16 -39 -32 -72 -36
-75 -15 -9 -49 36 -49 64 0 15 9 47 20 71 40 87 19 94 -55 18 -127 -131 -157
-327 -49 -327 60 0 142 52 189 120 31 45 45 50 45 17 0 -35 -44 -91 -102 -128
-48 -31 -59 -34 -129 -34 -69 0 -80 3 -104 25 -57 53 -63 148 -16 245 70 140
185 209 261 155z m3206 -12 c41 -36 64 -82 64 -128 0 -17 5 -30 13 -30 8 -1 7
-5 -4 -13 -8 -7 -29 -41 -46 -77 -53 -115 -115 -170 -192 -170 -49 0 -104 43
-121 96 -41 124 102 352 222 354 17 0 41 -12 64 -32z m4511 14 c12 -9 29 -30
37 -46 16 -32 7 -77 -30 -149 -19 -36 -20 -36 -42 -21 -28 19 -29 66 -2 129
33 78 7 81 -64 8 -56 -58 -106 -164 -106 -227 0 -67 20 -96 66 -96 52 0 105
32 168 101 57 64 73 70 62 24 -10 -40 -76 -106 -131 -131 -60 -29 -144 -32
-185 -8 -93 56 -86 206 17 341 61 80 160 115 210 75z m-6939 -42 c2 -39 -5
-62 -53 -154 -32 -59 -61 -122 -66 -139 -31 -108 77 -78 143 39 33 60 55 61
44 2 -13 -73 -96 -138 -174 -138 -125 0 -116 128 26 363 54 90 75 97 80 27z"/>
<path d="M15875 10616 c-90 -42 -144 -126 -145 -223 l0 -53 49 0 c72 0 170
-34 219 -76 39 -33 42 -34 42 -13 0 73 57 159 136 205 24 14 44 29 44 34 0 4
-16 28 -35 52 -71 94 -202 125 -310 74z"/>
<path d="M16494 10606 c-48 -22 -124 -97 -124 -121 0 -7 11 -17 24 -23 71 -32
131 -115 143 -197 l6 -46 26 24 c49 46 134 74 241 80 43 2 45 3 48 35 5 54
-25 139 -66 184 -77 86 -196 111 -298 64z"/>
<path d="M16191 10350 c-40 -29 -85 -107 -97 -167 -9 -44 3 -42 61 9 l47 42
19 -25 c37 -48 54 -119 54 -224 -1 -112 -18 -179 -66 -256 -33 -52 -36 -83
-14 -136 23 -54 44 -73 81 -73 42 0 79 42 93 109 10 46 9 53 -13 86 -46 67
-61 130 -61 255 0 106 2 120 29 177 41 89 45 90 100 38 25 -25 51 -45 56 -45
5 0 7 14 3 33 -11 59 -44 124 -84 163 -36 36 -43 38 -104 40 -57 2 -70 -2
-104 -26z"/>
<path d="M15804 10201 c42 -44 117 -73 178 -69 l52 3 -43 28 c-52 34 -142 67
-184 67 l-31 0 28 -29z"/>
<path d="M16680 10194 c-59 -18 -124 -56 -119 -69 2 -5 27 -10 55 -9 53 1 136
38 170 75 16 18 15 19 -22 18 -21 0 -59 -7 -84 -15z"/>
<path d="M15594 10171 c-60 -44 -90 -81 -121 -146 -23 -50 -27 -74 -28 -145 0
-78 3 -90 34 -148 57 -106 148 -177 376 -298 151 -80 214 -135 241 -212 l18
-50 18 28 c9 16 29 32 43 36 28 7 31 16 11 33 -25 21 -28 61 -8 102 l19 38
-28 25 c-32 29 -63 85 -74 134 -8 37 -7 37 -46 17 -125 -65 -293 -23 -351 87
-34 66 -32 167 5 231 34 57 90 97 148 104 l43 6 -50 22 c-69 32 -129 78 -160
125 -15 22 -32 40 -39 40 -7 0 -30 -13 -51 -29z"/>
<path d="M16881 10129 c-50 -57 -98 -90 -160 -112 l-43 -14 48 -12 c36 -9 61
-25 94 -59 94 -98 95 -230 1 -323 -83 -83 -191 -91 -342 -25 -13 6 -19 -2 -27
-36 -13 -53 -63 -124 -92 -133 -15 -5 -19 -12 -14 -23 29 -72 29 -72 7 -111
l-21 -37 28 -11 c16 -6 37 -25 48 -41 l18 -31 12 45 c21 78 85 130 267 218
234 113 338 195 391 309 47 102 26 250 -51 351 -23 31 -105 97 -117 96 -2 -1
-23 -24 -47 -51z"/>
<path d="M16105 10029 c-28 -10 -78 -18 -114 -19 -54 0 -62 -2 -48 -12 43 -33
40 -100 -5 -132 -32 -23 -62 -20 -97 10 l-30 25 -21 -33 c-40 -66 -20 -160 43
-198 43 -26 125 -26 176 -1 79 41 144 147 158 257 9 64 6 125 -5 123 -4 -1
-29 -10 -57 -20z"/>
<path d="M16395 10006 c-4 -23 -1 -71 5 -106 41 -227 238 -346 359 -216 36 38
42 130 11 169 l-22 28 -22 -20 c-33 -31 -89 -28 -115 5 -31 39 -23 90 17 120
12 9 -1 12 -59 16 -44 3 -93 13 -121 26 l-47 20 -6 -42z"/>
<path d="M11872 8670 c-29 -4 -68 -11 -87 -14 l-35 -7 0 -476 0 -476 133 6
c156 7 259 31 357 83 88 46 171 132 213 221 28 60 32 80 35 174 6 155 -26 254
-111 346 -94 102 -191 144 -347 148 -58 2 -129 0 -158 -5z"/>
<path d="M8865 5678 c-36 -45 -93 -123 -127 -172 l-61 -89 59 7 c32 4 75 9 95
12 l35 5 18 97 c10 53 27 124 37 157 10 32 16 61 14 63 -2 2 -33 -34 -70 -80z"/>
<path d="M14795 5327 c-9 -45 -3 -100 11 -104 7 -2 14 14 18 41 12 76 -16 135
-29 63z"/>
<path d="M14717 5156 c-47 -117 -70 -237 -48 -250 12 -8 45 32 74 89 24 50 70
176 65 179 -2 0 -17 11 -35 23 l-31 22 -25 -63z"/>
<path d="M15303 5693 c-60 -90 -125 -204 -120 -210 11 -10 120 125 151 188 62
124 45 135 -31 22z"/>
<path d="M10458 5550 c-38 -32 -98 -115 -98 -137 0 -21 54 -15 85 9 36 28 85
106 85 135 0 32 -27 30 -72 -7z"/>
<path d="M11268 5543 c-46 -42 -100 -121 -92 -134 13 -22 64 -8 99 26 36 37
75 103 75 130 0 27 -39 16 -82 -22z"/>
<path d="M16088 5550 c-38 -32 -98 -115 -98 -137 0 -25 58 -15 94 17 36 32 89
126 80 141 -10 17 -40 9 -76 -21z"/>
<path d="M17404 5548 c-40 -35 -94 -113 -94 -135 0 -20 54 -16 83 7 14 11 39
41 56 67 58 86 29 125 -45 61z"/>
<path d="M12536 5563 c-8 -8 -8 -56 0 -77 12 -30 24 -16 24 28 0 43 -10 63
-24 49z"/>
<path d="M12420 5487 c-85 -114 -107 -267 -38 -267 30 0 95 68 128 132 35 71
37 84 11 97 -10 6 -26 29 -35 51 -9 22 -18 40 -21 40 -2 0 -22 -24 -45 -53z"/>
</g>
</svg>
